Coordinates
version=1
nRows=4
nColumns=63
inDegrees=yes

Units are S.I. units (second, meters, Newtons, ...)
If the header above contains a line with 'inDegrees', this indicates whether rotational values are in degrees (yes) or radians (no).

endheader
time	pelvis_tilt	pelvis_list	pelvis_rotation	pelvis_tx	pelvis_ty	pelvis_tz	hip_flexion_r	hip_adduction_r	hip_rotation_r	knee_angle_r	knee_angle_r_beta	ankle_angle_r	subtalar_angle_r	mtp_angle_r	hip_flexion_l	hip_adduction_l	hip_rotation_l	knee_angle_l	knee_angle_l_beta	ankle_angle_l	subtalar_angle_l	mtp_angle_l	L5_S1_Flex_Ext	L5_S1_Lat_Bending	L5_S1_axial_rotation	L4_L5_Flex_Ext	L4_L5_Lat_Bending	L4_L5_axial_rotation	L3_L4_Flex_Ext	L3_L4_Lat_Bending	L3_L4_axial_rotation	L2_L3_Flex_Ext	L2_L3_Lat_Bending	L2_L3_axial_rotation	L1_L2_Flex_Ext	L1_L2_Lat_Bending	L1_L2_axial_rotation	L1_T12_Flex_Ext	L1_T12_Lat_Bending	L1_T12_axial_rotation	Abs_r3	Abs_r2	Abs_r1	Abs_t1	Abs_t2	neck_flexion	neck_bending	neck_rotation	arm_flex_r	arm_add_r	arm_rot_r	elbow_flex_r	pro_sup_r	wrist_flex_r	wrist_dev_r	arm_flex_l	arm_add_l	arm_rot_l	elbow_flex_l	pro_sup_l	wrist_flex_l	wrist_dev_l
      0.03333333	      3.59981219	      0.24934063	    179.12038076	      2.44999481	      0.89147701	      0.59419519	      5.89880093	      2.50680985	      4.77454835	      9.89740345	      0.17274228	     13.74440229	    -18.11911780	      0.00000000	      8.21346259	      1.37760682	     -2.51863828	     15.86594935	      0.27691306	     16.62512833	    -17.84732596	      0.00000000	     -0.00377519	     -0.07443960	     -0.41018584	     -0.00701090	     -0.09900467	     -0.43582246	     -0.00620226	     -0.18099245	     -0.43582246	     -0.00431466	     -0.18099245	     -0.35891261	     -0.00350564	     -0.15179724	     -0.33327600	     -0.00215714	     -0.11530695	     -0.30763938	     -0.02696579	     -0.84207569	     -2.28133059	      0.00000000	      0.00000000	      0.00000000	      0.00000000	      0.00000001	    -11.18115936	      0.83255589	    -19.73899562	     27.99398005	     56.37273650	      0.00000000	      4.41077333	    -13.17519529	      0.14184277	    -21.75952215	     23.54860172	     52.30875187	      0.00000000	      4.41077333
      0.06666667	      4.08351538	      0.27183576	    178.08834097	      2.44867042	      0.89178754	      0.59101683	      8.66846628	      2.73532608	      5.15914066	     14.35755016	      0.25058652	     17.05901324	    -17.01076989	      0.00000000	      8.27720666	      1.13461514	     -2.49733852	     15.35168728	      0.26793749	     16.01829354	    -17.75144637	      0.00000000	     -0.00134989	     -0.03061331	     -0.24215597	     -0.00250688	     -0.04071570	     -0.25729072	     -0.00221773	     -0.07443320	     -0.25729072	     -0.00154279	     -0.07443320	     -0.21188648	     -0.00125351	     -0.06242666	     -0.19675173	     -0.00077133	     -0.04742001	     -0.18161698	     -0.00964213	     -0.34630386	     -1.34679888	      0.00000000	      0.00000000	      0.00000000	      0.00000000	      0.00000001	    -10.18762852	     -2.88661599	     -7.11312289	     25.75213598	     58.63277431	      0.00000000	      4.65011745	    -12.96846367	     -3.16712436	     -5.26010151	     21.80950933	     55.59796488	      0.00000000	      4.65011745
      0.10000000	      4.41961726	      0.11841548	    177.38023062	      2.44756360	      0.89205587	      0.58848318	     11.01655433	      2.38226170	      2.88580014	     18.27341344	      0.31893123	     20.65704987	    -12.48498766	      0.00000000	      8.26085461	      1.11823987	     -2.43848682	     14.87232742	      0.25957108	     15.48254338	    -17.62050054	      0.00000000	     -0.00064367	     -0.01300794	     -0.11132958	     -0.00119537	     -0.01730056	     -0.11828768	     -0.00105749	     -0.03162750	     -0.11828768	     -0.00073565	     -0.03162750	     -0.09741338	     -0.00059772	     -0.02652579	     -0.09045528	     -0.00036780	     -0.02014930	     -0.08349719	     -0.00459770	     -0.14714839	     -0.61918173	      0.00000000	      0.00000000	      0.00000000	      0.00000000	      0.00000001	     -8.88447051	     -6.44962234	      7.46349921	     24.26484792	     61.63422680	      0.00000000	      4.81039683	    -12.29333404	     -6.14142870	     10.62281652	     21.14281653	     57.97011599	      0.00000000	      4.81039683
      0.13333333	      4.62315775	     -0.01013156	    176.96506345	      2.44690532	      0.89223863	      0.58646082	     12.80041139	      2.17958003	      2.06974191	     21.35920203	      0.37278840	     22.41131276	    -10.87832839	      0.00000000	      8.16748574	      1.11196303	     -2.36581763	     14.36297547	      0.25068121	     15.13810079	    -17.52948512	      0.00000000	     -0.00032599	      0.00200141	      0.00549950	     -0.00060539	      0.00266188	      0.00584322	     -0.00053557	      0.00486623	      0.00584322	     -0.00037257	      0.00486623	      0.00481206	     -0.00030271	      0.00408127	      0.00446834	     -0.00018627	      0.00310018	      0.00412462	     -0.00232850	      0.02264035	      0.03058657	      0.00000000	      0.00000000	      0.00000000	      0.00000000	      0.00000001	     -8.62221395	     -7.27192657	      9.15360855	     24.11003970	     62.08220384	      0.00000000	      4.81538059	    -12.29342383	     -6.70069924	     12.09544285	     21.55368815	     58.31444574	      0.00000000	      4.81538059
